<?xml version="1.0" encoding="UTF-8" standalone="no"?>
<!-- Created with Inkscape (http://www.inkscape.org/) -->

<svg
   xmlns:dc="http://purl.org/dc/elements/1.1/"
   xmlns:cc="http://creativecommons.org/ns#"
   xmlns:rdf="http://www.w3.org/1999/02/22-rdf-syntax-ns#"
   xmlns:svg="http://www.w3.org/2000/svg"
   xmlns="http://www.w3.org/2000/svg"
   xmlns:xlink="http://www.w3.org/1999/xlink"
   xmlns:sodipodi="http://sodipodi.sourceforge.net/DTD/sodipodi-0.dtd"
   xmlns:inkscape="http://www.inkscape.org/namespaces/inkscape"
   sodipodi:docname="deskedit_banner.svg"
   viewBox="0 0 662.40002 116.26667"
   height="116.26667"
   width="662.40002"
   id="svg815"
   version="1.1"
   inkscape:version="0.92.3 (2405546, 2018-03-11)">
  <metadata
     id="metadata821">
    <rdf:RDF>
      <cc:Work
         rdf:about="">
        <dc:format>image/svg+xml</dc:format>
        <dc:type
           rdf:resource="http://purl.org/dc/dcmitype/StillImage" />
        <dc:title />
      </cc:Work>
    </rdf:RDF>
  </metadata>
  <defs
     id="defs819">
    <linearGradient
       inkscape:collect="always"
       id="linearGradient940">
      <stop
         style="stop-color:#916f6f;stop-opacity:1;"
         offset="0"
         id="stop936" />
      <stop
         style="stop-color:#916f6f;stop-opacity:0;"
         offset="1"
         id="stop938" />
    </linearGradient>
    <linearGradient
       inkscape:collect="always"
       id="linearGradient932">
      <stop
         style="stop-color:#916f6f;stop-opacity:1;"
         offset="0"
         id="stop928" />
      <stop
         style="stop-color:#916f6f;stop-opacity:0;"
         offset="1"
         id="stop930" />
    </linearGradient>
    <linearGradient
       inkscape:collect="always"
       id="linearGradient1590">
      <stop
         style="stop-color:#ffffff;stop-opacity:1"
         offset="0"
         id="stop1586" />
      <stop
         style="stop-color:#ffff00;stop-opacity:1"
         offset="1"
         id="stop1588" />
    </linearGradient>
    <linearGradient
       inkscape:collect="always"
       id="linearGradient1493">
      <stop
         style="stop-color:#ff8080;stop-opacity:1;"
         offset="0"
         id="stop1489" />
      <stop
         style="stop-color:#ff8080;stop-opacity:0;"
         offset="1"
         id="stop1491" />
    </linearGradient>
    <filter
       x="-0.5"
       width="2"
       y="-0.5"
       height="2"
       inkscape:menu-tooltip="Convert to small scattered particles with some thickness"
       inkscape:menu="Scatter"
       inkscape:label="Air Spray"
       style="color-interpolation-filters:sRGB;"
       id="filter1192">
      <feGaussianBlur
         result="result8"
         stdDeviation="5"
         id="feGaussianBlur1180" />
      <feTurbulence
         baseFrequency="0.015"
         numOctaves="2"
         type="fractalNoise"
         result="result7"
         seed="20"
         id="feTurbulence1182" />
      <feComposite
         in="SourceGraphic"
         operator="in"
         result="result6"
         in2="result8"
         id="feComposite1184" />
      <feComposite
         in="result6"
         operator="arithmetic"
         result="result2"
         in2="result7"
         k3="1"
         id="feComposite1186" />
      <feComposite
         in2="result6"
         operator="in"
         in="result2"
         result="fbSourceGraphic"
         id="feComposite1188" />
      <feComposite
         in2="fbSourceGraphic"
         in="fbSourceGraphic"
         k2="2.5"
         operator="arithmetic"
         id="feComposite1190"
         result="fbSourceGraphic" />
      <feColorMatrix
         result="fbSourceGraphicAlpha"
         in="fbSourceGraphic"
         values="0 0 0 -1 0 0 0 0 -1 0 0 0 0 -1 0 0 0 0 1 0"
         id="feColorMatrix1194" />
      <feGaussianBlur
         id="feGaussianBlur1196"
         stdDeviation="0.01"
         result="result1"
         in="fbSourceGraphic" />
      <feBlend
         in2="result1"
         id="feBlend1198"
         result="fbSourceGraphic"
         mode="multiply" />
      <feTurbulence
         id="feTurbulence1200"
         baseFrequency="0.8"
         type="fractalNoise"
         seed="0"
         numOctaves="3"
         result="result3" />
      <feDisplacementMap
         in2="result3"
         id="feDisplacementMap1202"
         in="fbSourceGraphic"
         xChannelSelector="R"
         yChannelSelector="G"
         scale="50"
         result="result2" />
      <feMorphology
         id="feMorphology1204"
         radius="1"
         operator="dilate"
         result="result4" />
      <feBlend
         in2="result2"
         id="feBlend1206"
         mode="screen" />
    </filter>
    <filter
       x="-0.35"
       width="1.7"
       y="-0.35"
       height="1.7"
       inkscape:menu-tooltip="Smooth rainbow colors warped along the edges and colorizable"
       inkscape:menu="Textures"
       inkscape:label="Warped Rainbow"
       style="color-interpolation-filters:sRGB;"
       id="filter1314">
      <feGaussianBlur
         result="result8"
         stdDeviation="5"
         id="feGaussianBlur1304" />
      <feTurbulence
         baseFrequency="0.015"
         numOctaves="2"
         type="fractalNoise"
         result="result7"
         seed="20"
         id="feTurbulence1306" />
      <feDisplacementMap
         yChannelSelector="A"
         xChannelSelector="A"
         scale="100"
         result="result10"
         in="result7"
         in2="result8"
         id="feDisplacementMap1308" />
      <feComposite
         in="result10"
         operator="atop"
         result="result2"
         in2="result8"
         id="feComposite1310" />
      <feComposite
         in2="result2"
         operator="arithmetic"
         in="result10"
         result="fbSourceGraphic"
         k1="2.5"
         k3="0.5"
         id="feComposite1312" />
    </filter>
    <linearGradient
       inkscape:collect="always"
       xlink:href="#linearGradient1493"
       id="linearGradient1495"
       x1="110.57722"
       y1="95.533447"
       x2="107.91911"
       y2="7.8159404"
       gradientUnits="userSpaceOnUse"
       gradientTransform="matrix(6.1402237,0,0,1.1448713,-347.45223,-9.89178)" />
    <filter
       inkscape:collect="always"
       style="color-interpolation-filters:sRGB"
       id="filter870"
       x="-0.025904981"
       width="1.05181"
       y="-0.027860073"
       height="1.0557201">
      <feGaussianBlur
         inkscape:collect="always"
         stdDeviation="0.32707638"
         id="feGaussianBlur872" />
    </filter>
    <filter
       inkscape:collect="always"
       style="color-interpolation-filters:sRGB"
       id="filter874"
       x="-0.011953653"
       width="1.0239073"
       y="-0.012049705"
       height="1.0240994">
      <feGaussianBlur
         inkscape:collect="always"
         stdDeviation="0.33110456"
         id="feGaussianBlur876" />
    </filter>
    <linearGradient
       inkscape:collect="always"
       xlink:href="#linearGradient1590"
       id="linearGradient1592"
       x1="80.214226"
       y1="-48.04097"
       x2="119.41077"
       y2="79.859238"
       gradientUnits="userSpaceOnUse" />
    <linearGradient
       inkscape:collect="always"
       xlink:href="#linearGradient1590"
       id="linearGradient898"
       gradientUnits="userSpaceOnUse"
       x1="80.214226"
       y1="-48.04097"
       x2="119.41077"
       y2="79.859238" />
    <linearGradient
       inkscape:collect="always"
       xlink:href="#linearGradient932"
       id="linearGradient934"
       x1="285.69385"
       y1="259.86542"
       x2="285.69385"
       y2="381.66119"
       gradientUnits="userSpaceOnUse" />
    <linearGradient
       inkscape:collect="always"
       xlink:href="#linearGradient940"
       id="linearGradient942"
       x1="285.69382"
       y1="248.58804"
       x2="280.43106"
       y2="685.39886"
       gradientUnits="userSpaceOnUse" />
  </defs>
  <sodipodi:namedview
     inkscape:current-layer="svg815"
     inkscape:window-maximized="1"
     inkscape:window-y="0"
     inkscape:window-x="1920"
     inkscape:cy="-258.75208"
     inkscape:cx="240.26608"
     inkscape:zoom="1.3300952"
     showgrid="false"
     id="namedview817"
     inkscape:window-height="1053"
     inkscape:window-width="1920"
     inkscape:pageshadow="2"
     inkscape:pageopacity="0"
     guidetolerance="10"
     gridtolerance="10"
     objecttolerance="10"
     borderopacity="1"
     bordercolor="#666666"
     pagecolor="#ffffff" />
  <flowRoot
     xml:space="preserve"
     id="flowRoot835"
     style="fill:black;stroke:none;stroke-opacity:1;stroke-width:1px;stroke-linejoin:miter;stroke-linecap:butt;fill-opacity:1;font-family:sans-serif;font-style:normal;font-weight:normal;font-size:40px;line-height:93.99999976%;letter-spacing:0px;word-spacing:0px;text-anchor:middle;text-align:center"><flowRegion
       id="flowRegion837"><rect
         id="rect839"
         width="11.277389"
         height="46.613209"
         x="328.54791"
         y="-54.397816" /></flowRegion><flowPara
       id="flowPara841" /></flowRoot>  <rect
     style="opacity:1;fill:url(#linearGradient1495);fill-opacity:1;stroke:#000000;stroke-width:1.11;stroke-linecap:round;stroke-linejoin:bevel;stroke-miterlimit:4;stroke-dasharray:none;stroke-opacity:1"
     id="rect1342"
     width="477.00989"
     height="87.035225"
     x="69.136826"
     y="13.055142"
     ry="7.912292"
     rx="18.34655" />
  <flowRoot
     xml:space="preserve"
     id="flowRoot827-2"
     style="font-style:normal;font-weight:normal;font-size:40px;line-height:93.99999976%;font-family:sans-serif;text-align:center;letter-spacing:0px;word-spacing:0px;text-anchor:middle;fill:#501616;fill-opacity:1;stroke:none;stroke-width:1px;stroke-linecap:butt;stroke-linejoin:miter;stroke-opacity:1"
     transform="matrix(2.3213461,0,0,1.1998506,-417.62676,20.654062)"><flowRegion
       id="flowRegion829-0"
       style="fill:#501616;stroke:none;stroke-opacity:1"><rect
         id="rect831-7"
         width="591.68701"
         height="95.481895"
         x="33.832165"
         y="14.018345"
         style="fill:#501616;stroke:none;stroke-opacity:1" /></flowRegion><flowPara
       id="flowPara833-4"
       style="font-style:normal;font-variant:normal;font-weight:normal;font-stretch:normal;font-size:85.33333588px;font-family:'10.15 Saturday Night BRK';-inkscape-font-specification:'10.15 Saturday Night BRK';fill:#501616;stroke:none;stroke-opacity:1">DESKEDIT</flowPara></flowRoot>  <flowRoot
     xml:space="preserve"
     id="flowRoot827"
     style="font-style:normal;font-weight:normal;font-size:40px;line-height:93.99999976%;font-family:sans-serif;text-align:center;letter-spacing:0px;word-spacing:0px;text-anchor:middle;fill:#ffff00;fill-opacity:1;stroke:#000000;stroke-width:1px;stroke-linecap:butt;stroke-linejoin:miter;stroke-opacity:1"
     transform="matrix(2.2530756,0,0,1.1645632,-395.52587,19.946661)"><flowRegion
       id="flowRegion829"
       style="fill:#ffff00;stroke:#000000;stroke-opacity:1"><rect
         id="rect831"
         width="591.68701"
         height="95.481895"
         x="33.832165"
         y="14.018345"
         style="fill:#ffff00;stroke:#000000;stroke-opacity:1" /></flowRegion><flowPara
       id="flowPara833"
       style="font-style:normal;font-variant:normal;font-weight:normal;font-stretch:normal;font-size:85.33333588px;font-family:'10.15 Saturday Night BRK';-inkscape-font-specification:'10.15 Saturday Night BRK';fill:#ffff00;stroke:#000000;stroke-opacity:1">DESKEDIT</flowPara></flowRoot>  <path
     style="opacity:0;fill:#000000;fill-opacity:0.24313726;stroke:none;stroke-width:1.75748026;stroke-linecap:round;stroke-linejoin:bevel;stroke-miterlimit:4;stroke-dasharray:none;stroke-opacity:1"
     id="path1476"
     sodipodi:type="arc"
     sodipodi:cx="94.495667"
     sodipodi:cy="-139.70894"
     sodipodi:rx="17.676405"
     sodipodi:ry="20.999037"
     sodipodi:start="5.5341424"
     sodipodi:end="5.5312975"
     sodipodi:open="true"
     d="m 107.44082,-154.00798 a 17.676405,20.999037 0 0 1 -0.89941,29.66732 17.676405,20.999037 0 0 1 -24.973764,-1.04737 17.676405,20.999037 0 0 1 0.863889,-29.66882 17.676405,20.999037 0 0 1 24.974995,1.00517" />
  <rect
     style="opacity:1;fill:#ff8282;fill-opacity:0.18431373;stroke:none;stroke-width:1.87854743;stroke-linecap:round;stroke-linejoin:bevel;stroke-miterlimit:4;stroke-dasharray:none;stroke-opacity:1"
     id="rect1497"
     width="70.70562"
     height="67.5159"
     x="86.604813"
     y="22.958157"
     rx="3.010566"
     ry="7.8366709" />
  <path
     sodipodi:type="star"
     style="opacity:1;fill:#241c1c;fill-opacity:1;stroke:none;stroke-width:1.75748026;stroke-linecap:round;stroke-linejoin:bevel;stroke-miterlimit:4;stroke-dasharray:none;stroke-opacity:1;filter:url(#filter874)"
     id="path1499"
     sodipodi:sides="7"
     sodipodi:cx="107.56918"
     sodipodi:cy="56.25061"
     sodipodi:r1="33.865562"
     sodipodi:r2="22.04648"
     sodipodi:arg1="0.74098295"
     sodipodi:arg2="1.1897819"
     inkscape:flatsided="false"
     inkscape:rounded="0.59"
     inkscape:randomized="0"
     d="m 132.55538,79.110321 c -6.75358,7.381822 -7.50032,-6.114753 -16.78794,-2.39423 -9.28762,3.720522 -0.50993,13.999982 -10.49206,13.32231 -9.98213,-0.677672 0.10433,-9.676472 -8.595225,-14.618118 -8.699557,-4.941645 -11.263562,8.330168 -16.957493,0.103302 -5.693931,-8.226865 7.630421,-5.951611 6.06987,-15.834264 -1.560552,-9.882654 -13.535504,-3.612433 -10.653589,-13.193494 2.881914,-9.581061 9.410646,2.254934 16.164228,-5.126888 6.753582,-7.381821 -5.614934,-12.834798 3.672685,-16.55532 9.287624,-3.720522 4.104463,8.763469 14.086594,9.441141 9.98213,0.677672 6.53379,-12.392298 15.23335,-7.450653 8.69956,4.941645 -4.29246,8.672932 1.40147,16.899797 5.69393,8.226865 13.76244,-2.618145 15.32299,7.264509 1.56055,9.882653 -9.45708,2.0515 -12.33899,11.632561 -2.88192,9.581061 10.62769,9.127525 3.87411,16.509347 z"
     transform="matrix(1,0,0,0.97581621,14,0.178239)"
     clip-path="none" />
  <path
     style="opacity:1;fill:#b5a92a;fill-opacity:1;stroke:none;stroke-width:4.14614153;stroke-linecap:round;stroke-linejoin:bevel;stroke-miterlimit:4;stroke-dasharray:none;stroke-opacity:1;filter:url(#filter870)"
     id="path852"
     sodipodi:type="arc"
     sodipodi:cx="121.04848"
     sodipodi:cy="55.022362"
     sodipodi:rx="15.151204"
     sodipodi:ry="14.087962"
     sodipodi:start="5.5341424"
     sodipodi:end="5.5312975"
     sodipodi:open="true"
     d="m 132.14432,45.429331 a 15.151204,14.087962 0 0 1 -0.77092,19.903397 15.151204,14.087962 0 0 1 -21.40608,-0.702669 15.151204,14.087962 0 0 1 0.74047,-19.904397 15.151204,14.087962 0 0 1 21.40714,0.674356" />
  <rect
     style="opacity:1;fill:#916f6f;fill-opacity:1;stroke:#000000;stroke-width:1.04515302;stroke-linecap:round;stroke-linejoin:bevel;stroke-miterlimit:4;stroke-dasharray:none;stroke-opacity:1"
     id="rect864"
     width="481.71335"
     height="88.000237"
     x="66.010086"
     y="-93.878098"
     ry="14.284692"
     inkscape:export-xdpi="96"
     inkscape:export-ydpi="96" />
  <path
     sodipodi:type="star"
     style="opacity:1;fill:url(#linearGradient1592);fill-opacity:1;stroke:#000000;stroke-width:1.11000001;stroke-linecap:round;stroke-linejoin:bevel;stroke-miterlimit:4;stroke-dasharray:none;stroke-opacity:1"
     id="path878"
     sodipodi:sides="14"
     sodipodi:cx="103.00015"
     sodipodi:cy="26.047564"
     sodipodi:r1="52.633183"
     sodipodi:r2="30.06918"
     sodipodi:arg1="0.38050638"
     sodipodi:arg2="0.60490585"
     inkscape:flatsided="false"
     inkscape:rounded="0.16"
     inkscape:randomized="0"
     d="m 151.86884,45.595037 c -1.44153,3.603812 -21.92781,-5.64028 -24.13511,-2.447593 -2.20731,3.192687 13.67666,19.093643 10.81425,21.715111 -2.8624,2.621469 -17.30904,-14.595834 -20.68301,-12.677036 -3.37397,1.918797 4.03783,23.136859 0.32148,24.25677 -3.71635,1.11991 -9.26202,-20.660505 -13.13439,-20.395638 -3.87238,0.264866 -6.400754,22.597537 -10.23498,21.994078 C 90.982854,77.43727 95.436551,55.407621 91.83274,53.966096 88.228928,52.524571 76.261157,71.548591 73.06847,69.341285 69.875783,67.133978 83.446732,49.218337 80.825264,46.355933 78.203796,43.493529 59.166994,55.440957 57.248197,52.066988 55.329399,48.693019 75.329707,38.439798 74.209797,34.723449 73.089887,31.007099 50.754526,33.511602 50.48966,29.639226 50.224793,25.766849 72.693154,25.206825 73.296613,21.372599 73.900072,17.538373 52.689945,10.103902 54.13147,6.5000902 55.572994,2.8962784 76.059273,12.14037 78.266579,8.9476832 80.473886,5.7549959 64.589917,-10.14596 67.452321,-12.767428 70.314726,-15.388896 84.761364,1.8284059 88.135333,-0.09039159 91.509302,-2.0091891 84.097508,-23.227251 87.813857,-24.347162 c 3.71635,-1.11991 9.262013,20.6605047 13.134393,20.3956382 3.87237,-0.2648664 6.40075,-22.5975372 10.23498,-21.9940782 3.83422,0.603459 -0.61948,22.6331085 2.98434,24.0746332 3.60381,1.44152473 15.57158,-17.5824952 18.76427,-15.3751892 3.19268,2.207307 -10.37827,20.1229477 -7.7568,22.9853519 2.62147,2.8624042 21.65827,-9.0850242 23.57707,-5.71105497 1.9188,3.37396927 -18.08151,13.62719007 -16.9616,17.34353907 1.11991,3.71635 23.45527,1.211847 23.72014,5.084224 0.26486,3.872376 -22.2035,4.4324 -22.80696,8.266626 -0.60346,3.834226 20.60667,11.268697 19.16515,14.872509 z"
     transform="matrix(3.6060117,0,0,0.96402859,-65.209294,-76.501096)"
     inkscape:export-xdpi="96"
     inkscape:export-ydpi="96" />
  <text
     xml:space="preserve"
     style="font-style:normal;font-weight:normal;font-size:40px;line-height:93.99999976%;font-family:sans-serif;text-align:center;letter-spacing:0px;word-spacing:0px;text-anchor:middle;fill:#000000;fill-opacity:1;stroke:#ffffff;stroke-width:2.51338577;stroke-linecap:butt;stroke-linejoin:miter;stroke-miterlimit:4;stroke-dasharray:none;stroke-opacity:1"
     x="309.52896"
     y="-15.545901"
     id="text868"
     inkscape:export-xdpi="96"
     inkscape:export-ydpi="96"><tspan
       sodipodi:role="line"
       id="tspan866"
       x="309.52896"
       y="-15.545901"
       style="font-style:normal;font-variant:normal;font-weight:normal;font-stretch:normal;font-size:96px;font-family:'Numskull BRK';-inkscape-font-specification:'Numskull BRK';fill:#000000;fill-opacity:1;stroke:#ffffff;stroke-width:2.51338577;stroke-miterlimit:4;stroke-dasharray:none;stroke-opacity:1">DeskEdit</tspan></text>
  <rect
     style="opacity:1;fill:url(#linearGradient942);fill-opacity:1;stroke:#000000;stroke-width:0.48485935;stroke-linecap:round;stroke-linejoin:bevel;stroke-miterlimit:4;stroke-dasharray:none;stroke-opacity:1"
     id="rect864-7"
     width="95.515144"
     height="95.515144"
     x="240.94357"
     y="249.6366"
     ry="15.504552"
     inkscape:export-xdpi="96"
     inkscape:export-ydpi="96" />
  <rect
     style="opacity:1;fill:url(#linearGradient934);fill-opacity:1;stroke:none;stroke-width:2.62444448;stroke-linecap:round;stroke-linejoin:bevel;stroke-miterlimit:4;stroke-dasharray:none;stroke-opacity:1"
     id="rect926"
     width="84"
     height="84"
     x="247.07706"
     y="255.83261"
     ry="0" />
  <path
     sodipodi:type="star"
     style="opacity:1;fill:url(#linearGradient898);fill-opacity:1;stroke:#000000;stroke-width:1.11000001;stroke-linecap:round;stroke-linejoin:bevel;stroke-miterlimit:4;stroke-dasharray:none;stroke-opacity:1"
     id="path878-5"
     sodipodi:sides="10"
     sodipodi:cx="103.00015"
     sodipodi:cy="26.047564"
     sodipodi:r1="26.842922"
     sodipodi:r2="52.633183"
     sodipodi:arg1="0.38050638"
     sodipodi:arg2="0.69466565"
     inkscape:flatsided="false"
     inkscape:rounded="0.17"
     inkscape:randomized="0"
     d="m 127.92318,36.016775 c -1.7896,4.473993 18.5979,20.02079 15.51335,23.722794 -3.08455,3.702005 -22.05542,-13.544994 -26.13298,-10.977356 -4.07756,2.567637 3.27809,27.12873 -1.39334,28.310662 -4.67144,1.181933 -9.88167,-23.92198 -14.6897,-24.241448 C 96.412472,52.511959 87.926672,76.705844 83.452679,74.916247 78.978686,73.126649 89.519235,49.754664 85.81723,46.670116 82.115226,43.585568 61.029261,58.171004 58.461623,54.093442 55.893986,50.01588 78.159177,37.303126 76.977244,32.63169 75.795312,27.960255 50.163303,27.366101 50.482772,22.558065 50.80224,17.750029 76.287528,20.552345 78.077125,16.078352 79.866722,11.604359 59.479227,-3.9424379 62.563775,-7.6444422 65.648323,-11.346446 84.619193,5.9005518 88.696755,3.3329143 92.774317,0.76527677 85.418665,-23.795816 90.0901,-24.977748 c 4.671435,-1.181933 9.881661,23.9219799 14.6897,24.24144813 4.80803,0.31946825 13.29383,-23.87441713 17.76783,-22.08481913 4.47399,1.789597 -6.06656,25.1615824 -2.36456,28.2461304 3.70201,3.0845481 24.78797,-11.5008879 27.35561,-7.4233262 2.56764,4.0775617 -19.69755,16.7903158 -18.51562,21.4617518 1.18193,4.671435 26.81394,5.265589 26.49447,10.073625 -0.31946,4.808036 -25.80475,2.00572 -27.59435,6.479713 z"
     transform="matrix(0.90376753,0,0,0.72915101,194.83461,279.11856)"
     inkscape:export-xdpi="96"
     inkscape:export-ydpi="96" />
  <text
     xml:space="preserve"
     style="font-style:normal;font-weight:normal;font-size:40px;line-height:93.99999976%;font-family:sans-serif;text-align:center;letter-spacing:0px;word-spacing:0px;text-anchor:middle;fill:#000000;fill-opacity:1;stroke:#ffffff;stroke-width:2.51338577;stroke-linecap:butt;stroke-linejoin:miter;stroke-miterlimit:4;stroke-dasharray:none;stroke-opacity:1"
     x="286.76031"
     y="335.39066"
     id="text868-6"
     inkscape:export-xdpi="96"
     inkscape:export-ydpi="96"><tspan
       sodipodi:role="line"
       id="tspan866-2"
       x="286.76031"
       y="335.39066"
       style="font-style:normal;font-variant:normal;font-weight:normal;font-stretch:normal;font-size:96px;font-family:'Numskull BRK';-inkscape-font-specification:'Numskull BRK';fill:#000000;fill-opacity:1;stroke:#ffffff;stroke-width:2.51338577;stroke-miterlimit:4;stroke-dasharray:none;stroke-opacity:1">D</tspan></text>
</svg>
